inDegrees=no
num_controls=7
num_derivatives=13
num_iterations=154
num_multipliers=7
num_parameters=0
num_slacks=7
num_states=26
objective=0.543583
objective_accelerations=0.060910
objective_balance=0.003268
objective_effort=0.047362
objective_height=0.422279
objective_ligament=0.009765
solver_duration=1659.846341
status=Solve_Succeeded
success=true
DataType=double
version=3
OpenSimVersion=4.5
endheader
time	/jointset/ground_pelvis/pelvis_tilt/value	/jointset/ground_pelvis/pelvis_tx/value	/jointset/ground_pelvis/pelvis_ty/value	/jointset/hip_r/hip_flexion_r/value	/jointset/hip_r/hip_adduction_r/value	/jointset/hip_r/hip_rotation_r/value	/jointset/back/lumbar_extension/value	/jointset/patellofemoral_r/patellar_flexion_r/value	/jointset/knee_r/knee_flexion_r/value	/jointset/knee_r/knee_adduction_r/value	/jointset/knee_r/knee_rotation_r/value	/jointset/ankle_r/ankle_angle_r/value	/jointset/subtalar_r/subtalar_angle_r/value	/jointset/ground_pelvis/pelvis_tilt/speed	/jointset/ground_pelvis/pelvis_tx/speed	/jointset/ground_pelvis/pelvis_ty/speed	/jointset/hip_r/hip_flexion_r/speed	/jointset/hip_r/hip_adduction_r/speed	/jointset/hip_r/hip_rotation_r/speed	/jointset/back/lumbar_extension/speed	/jointset/patellofemoral_r/patellar_flexion_r/speed	/jointset/knee_r/knee_flexion_r/speed	/jointset/knee_r/knee_adduction_r/speed	/jointset/knee_r/knee_rotation_r/speed	/jointset/ankle_r/ankle_angle_r/speed	/jointset/subtalar_r/subtalar_angle_r/speed	/forceset/tau_hip_flexion_r	/forceset/tau_hip_adduction_r	/forceset/tau_hip_rotation_r	/forceset/tau_knee_flexion_r	/forceset/tau_ankle_angle_r	/forceset/tau_subtalar_angle_r	/forceset/tau_lumbar_extension	lambda_cid13_p0	lambda_cid14_p0	lambda_cid14_p1	lambda_cid14_p2	lambda_cid14_p3	lambda_cid14_p4	lambda_cid14_p5	/jointset/ground_pelvis/pelvis_tilt/accel	/jointset/ground_pelvis/pelvis_tx/accel	/jointset/ground_pelvis/pelvis_ty/accel	/jointset/hip_r/hip_flexion_r/accel	/jointset/hip_r/hip_adduction_r/accel	/jointset/hip_r/hip_rotation_r/accel	/jointset/back/lumbar_extension/accel	/jointset/patellofemoral_r/patellar_flexion_r/accel	/jointset/knee_r/knee_flexion_r/accel	/jointset/knee_r/knee_adduction_r/accel	/jointset/knee_r/knee_rotation_r/accel	/jointset/ankle_r/ankle_angle_r/accel	/jointset/subtalar_r/subtalar_angle_r/accel	gamma_cid13_p0	gamma_cid14_p0	gamma_cid14_p1	gamma_cid14_p2	gamma_cid14_p3	gamma_cid14_p4	gamma_cid14_p5
0	-0.006511385492259729	0.09625863511970874	0.9427240460133661	0.1762555222360518	-0.2321537722834518	-0.2616116498598652	-0.038598046466844	0.07317863873450833	0.07317863873451017	0.1745326991812931	0.1745051679544641	0.03247278518263602	-0.003453531638819679	0	0	0	0	0	0	0	0	0	0	0	0	0	0.2316078832569871	-0.1614711449310736	-0.04350647815659538	-0.4018021673856533	0.3850560771349176	-0.144029377755628	-0.1296945103639973	-39.07537568998819	73.99054495919749	-39.75387527533375	-4.445107521945753	-24.60346057748965	-673.8747861398723	56.96785726859827	-2.610864535299378	-1.501643129827958	-0.7779871686616108	11.18446226611962	-0.08364868773692026	3.041691443411338	-5.397566490853268	11.23572114409759	11.23572114409735	-2.859237810554566	0.2263925294382225	3.496552644806146	0.6863922180485323	1.114465878844692e-07	3.525718301647112e-08	-8.538537265697882e-07	2.326393452505171e-07	5.316186481968859e-08	2.620846024931438e-08	-4.048161041807708e-07
0.01	-0.006633948476707776	0.09618530341107596	0.9426865843864448	0.1767960839691219	-0.2321567827891302	-0.2614504934182826	-0.03887128207210495	0.07372437761052682	0.07372437761052941	0.1743906285987194	0.1745029477704966	0.03264379505649457	-0.003418968430590383	-0.02444071001136073	-0.01452927264049796	-0.007477068163920901	0.1075732129583698	-0.0006505505208870467	0.03207739694056673	-0.0542487571509029	0.1086641401736524	0.1086641401736503	-0.02816186795039751	-0.0004333297345686088	0.03411878315812612	0.00684372268651129	0.228669790689024	-0.1721632986116431	-0.04301747445857497	-0.4008585638423369	0.383200566101941	-0.1332560553214246	-0.1268127776852278	-39.09371737300781	73.81865331810549	-35.17412631016812	-5.096422300075082	-25.74487217920925	-674.4505932495738	65.90340639484643	-2.349889542695549	-1.407998335763736	-0.7302728155204482	10.462882099474	-0.06311696584437818	3.267740861068512	-5.37877574208486	10.609192910099	10.60919291009886	-2.75693496716357	-0.1765168575052773	3.357078999720355	0.6729173074798799	1.499595502937769e-07	1.864548047630286e-08	-1.164352321165204e-06	2.069284128789906e-07	1.034435053872094e-07	-2.287232870514473e-07	-4.731019387220237e-07
0.02	-0.006998761622996078	0.09597079317511771	0.9425748108428317	0.1783962040895334	-0.2321677705463337	-0.2609731675989573	-0.03967505433184991	0.07534224437950511	0.07534224437950521	0.1739744846006584	0.1744967300626552	0.03315350033161526	-0.0033180569927905	-0.04845003236837195	-0.02823570546509268	-0.01486238333838295	0.2119116774678735	-0.001595450304965621	0.06323387554870194	-0.1061073308968541	0.2144255785913016	0.2144255785912994	-0.05481468309604428	-0.0007995047731730684	0.06773908025243273	0.01326964591412067	0.2257316981210661	-0.1828554522922116	-0.04252847076058112	-0.3999149602990145	0.381345055068965	-0.1224827328872196	-0.1239310450064544	-39.147863960375	73.74491285491985	-30.59873299836789	-5.722434936342238	-27.08977925969642	-673.5208826128845	74.58730794585317	-2.524587004429516	-1.337075166647268	-0.7596365707698425	10.5375125763464	-0.1425185403752337	2.857507776925039	-4.919529809862946	10.65518079289695	10.6551807928971	-2.557427249604402	0.2398234686310481	3.396855432042286	0.6028323262681524	1.884725127030847e-07	2.033777936134601e-09	-1.474850915760621e-06	1.812174805074641e-07	1.537251459547301e-07	-4.83655034352209e-07	-5.413877732632766e-07
0.03	-0.007601523143001329	0.09562232756133542	0.9423892741067815	0.181025125066281	-0.232189755839791	-0.2601912181150779	-0.04098535058351786	0.07800422922730343	0.07800422922730355	0.1732997957272738	0.1744893750243512	0.03399587561419065	-0.003155261837435753	-0.07196965576468639	-0.04141834224488899	-0.02225463940108431	0.3133936921372796	-0.002836834179702876	0.09299645481646751	-0.1556059195560016	0.3174928473182232	0.3174928473182217	-0.07986746802816505	-0.0006893403135256031	0.1005340304556704	0.01920742570489627	0.2180119177023583	-0.1870214858562199	-0.04040809720644101	-0.3903831603255762	0.3657493159961134	-0.112301488534381	-0.1179358418577284	-39.23622323955916	69.19614323744477	-27.05169746723862	-6.198581633240994	-24.44355049176108	-672.4727174227695	80.44215791242858	-2.245744593146451	-1.302965728379278	-0.7305692144734141	9.881724770206185	-0.1204149838557184	3.01176555810228	-4.913123411897077	10.06068051494259	10.06068051494259	-2.441078120039603	-0.1059737627632459	3.190554523112537	0.5767455197815758	2.131450163019163e-07	-5.031492591097601e-09	-1.662064213538647e-06	1.956837499037448e-07	1.827704584988482e-07	-6.417282998166449e-07	-6.125650631219429e-07
0.04	-0.008435499814150848	0.09514321402080857	0.9421295049920136	0.1846545019613178	-0.2322252483065625	-0.2591164163272414	-0.04278025272536839	0.08168252288284086	0.08168252288284097	0.1723822042035658	0.1744826042911654	0.03516014834052805	-0.00293558994131339	-0.09469306259756821	-0.0543652908140017	-0.02970885908192167	0.412002861125425	-0.00429688496775046	0.1218043363402327	-0.2030285089334116	0.4176873401392574	0.4176873401392553	-0.1033952131612335	-0.0006826437496730928	0.1321185690048296	0.02464499406764432	0.2102921372836522	-0.1911875194202267	-0.03828772365229442	-0.380851360352138	0.3501535769232624	-0.102120244181541	-0.1119406387090017	-39.35674605023517	64.73587723167297	-23.50262607694026	-6.659676033260062	-21.99065804728637	-670.0782723715536	86.08093648810654	-2.36534369174303	-1.289937524510508	-0.7720292943970445	9.962943440094262	-0.1862519230373036	2.666568228124981	-4.504329953515454	10.08062561171944	10.08062561171935	-2.252419289793926	0.2191298894720506	3.154773101226639	0.5027900406626447	2.375321496159959e-07	-1.189992946857855e-08	-1.846735546433841e-06	2.109784152127638e-07	2.113779086094941e-07	-7.978044831813627e-07	-6.838019706160196e-07
0.05	-0.00949352762425352	0.09453603841072697	0.9417945788813191	0.1892567644357031	-0.2322762936178308	-0.2577601882774486	-0.04503840129167006	0.08634962710577236	0.08634962710577342	0.1712368279118468	0.1744772814047494	0.03663488049933963	-0.002663707630376248	-0.1167943814652886	-0.0670039004841138	-0.03730564723637053	0.5079583218449522	-0.005936784465329264	0.1492715357664392	-0.2482595731766959	0.5152553363877721	0.5152553363877814	-0.1254204058644661	-0.0004102329928593208	0.1626562767090163	0.02966817677702421	0.2031613736400914	-0.1791872855345782	-0.03652180027089921	-0.3741131802936109	0.3420863475103538	-0.1076248651657424	-0.1063358215349911	-39.50696550653488	62.0824406853193	-26.40112722005311	-6.148178324031614	-20.53947934731444	-668.0555655266827	78.79643406693104	-2.114787801670315	-1.240890573677862	-0.7580570249977181	9.338154706201014	-0.156774095767788	2.761417721650382	-4.481249987266659	9.523113718991491	9.523113718993253	-2.138895522154367	-0.0728411326209146	2.977571393468965	0.4923226543483772	2.33425759119984e-07	-2.222102402427228e-08	-1.811374798097393e-06	1.913362169925716e-07	2.204460114413212e-07	-8.951941563442316e-07	-6.677920898169768e-07
